<?xml version="1.0" encoding="us-ascii" standalone="no"?><svg xmlns="http://www.w3.org/2000/svg" xmlns:xlink="http://www.w3.org/1999/xlink" contentStyleType="text/css" height="880px" preserveAspectRatio="none" style="width:1461px;height:880px;background:#FFFFFF;" version="1.1" viewBox="0 0 1461 880" width="1461px" zoomAndPan="magnify"><defs/><g><!--cluster redcars--><g id="cluster_redcars"><rect fill="none" height="561" rx="2.5" ry="2.5" style="stroke:#181818;stroke-width:1.0;" width="1448.38" x="7" y="109.93"/><text fill="#000000" font-family="sans-serif" font-size="14" font-weight="bold" lengthAdjust="spacing" textLength="51" x="705.69" y="124.9359">redcars</text></g><g id="elem_B_AB"><ellipse cx="1082.575" cy="614.929" fill="#A4E148" rx="70.695" ry="16.539" style="stroke:#181818;stroke-width:0.5;"/><text fill="#000000" font-family="sans-serif" font-size="14" lengthAdjust="spacing" textLength="90" x="1034.575" y="618.682">Admin Beheer</text></g><g id="elem_B_KB"><ellipse cx="1354.0379" cy="620.9281" fill="#A4E148" rx="74.3179" ry="26.3581" style="stroke:#181818;stroke-width:0.5;"/><text fill="#000000" font-family="sans-serif" font-size="14" font-style="italic" lengthAdjust="spacing" textLength="56" x="1319.6992" y="615.8557">&#171;CRUD&#187;</text><text fill="#000000" font-family="sans-serif" font-size="14" lengthAdjust="spacing" textLength="97" x="1299.1992" y="632.3617">Klanten beheer</text></g><g id="elem_B_VB"><ellipse cx="1354.0412" cy="532.9304" fill="#A4E148" rx="77.3412" ry="26.2804" style="stroke:#181818;stroke-width:0.5;"/><text fill="#000000" font-family="sans-serif" font-size="14" font-style="italic" lengthAdjust="spacing" textLength="56" x="1319.5925" y="527.7003">&#171;CRUD&#187;</text><text fill="#000000" font-family="sans-serif" font-size="14" lengthAdjust="spacing" textLength="102" x="1296.5925" y="544.2062">Voertuig beheer</text></g><g id="elem_R_KR"><ellipse cx="497.5919" cy="582.9264" fill="#FFCB0C" rx="86.0819" ry="19.6164" style="stroke:#181818;stroke-width:0.5;"/><text fill="#000000" font-family="sans-serif" font-size="14" lengthAdjust="spacing" textLength="130" x="429.5919" y="586.6794">Registreren als klant</text></g><g id="elem_R_AI"><ellipse cx="159.2517" cy="618.9303" fill="#FFCB0C" rx="128.2517" ry="28.0503" style="stroke:#181818;stroke-width:0.5;"/><text fill="#000000" font-family="sans-serif" font-size="14" lengthAdjust="spacing" textLength="224" x="47.2517" y="621.5363">Goedkeuring automatische Incasso</text></g><g id="elem_R_EV"><ellipse cx="159.25" cy="538.928" fill="#FFCB0C" rx="72.49" ry="16.898" style="stroke:#181818;stroke-width:0.5;"/><text fill="#000000" font-family="sans-serif" font-size="14" lengthAdjust="spacing" textLength="95" x="108.75" y="542.681">Email veriferen</text></g><g id="elem_R_I"><ellipse cx="797.0543" cy="582.9324" fill="#FFCB0C" rx="51.7843" ry="15.2324" style="stroke:#181818;stroke-width:0.5;"/><text fill="#000000" font-family="sans-serif" font-size="14" lengthAdjust="spacing" textLength="55" x="766.5543" y="586.6854">Inloggen</text></g><g id="elem_V_VH"><ellipse cx="1082.5675" cy="347.9255" fill="#83D3F6" rx="72.1275" ry="16.8255" style="stroke:#181818;stroke-width:0.5;"/><text fill="#000000" font-family="sans-serif" font-size="14" lengthAdjust="spacing" textLength="94" x="1032.5675" y="351.6785">Voertuig huren</text></g><g id="elem_V_VZ"><ellipse cx="797.049" cy="451.9298" fill="#83D3F6" rx="75.449" ry="17.4898" style="stroke:#181818;stroke-width:0.5;"/><text fill="#000000" font-family="sans-serif" font-size="14" lengthAdjust="spacing" textLength="103" x="742.549" y="455.6828">Voertuig zoeken</text></g><g id="elem_V_VR"><ellipse cx="797.0531" cy="247.9306" fill="#83D3F6" rx="84.4531" ry="19.2906" style="stroke:#181818;stroke-width:0.5;"/><text fill="#000000" font-family="sans-serif" font-size="14" lengthAdjust="spacing" textLength="126" x="731.0531" y="251.6836">Voertuig reserveren</text></g><g id="elem_V_I"><ellipse cx="797.0465" cy="317.9337" fill="#83D3F6" rx="59.3465" ry="15.2937" style="stroke:#181818;stroke-width:0.5;"/><text fill="#000000" font-family="sans-serif" font-size="14" lengthAdjust="spacing" textLength="65" x="761.5465" y="321.6867">Inchecken</text></g><g id="elem_V_U"><ellipse cx="797.0539" cy="383.9327" fill="#83D3F6" rx="57.8339" ry="15.2827" style="stroke:#181818;stroke-width:0.5;"/><text fill="#000000" font-family="sans-serif" font-size="14" lengthAdjust="spacing" textLength="63" x="762.5539" y="387.6857">Uitcheken</text></g><g id="elem_V_GPS"><ellipse cx="497.5919" cy="443.9304" fill="#83D3F6" rx="68.6019" ry="16.1204" style="stroke:#181818;stroke-width:0.5;"/><text fill="#000000" font-family="sans-serif" font-size="14" lengthAdjust="spacing" textLength="84" x="452.5919" y="447.6834">GPS-tracking</text></g><g id="elem_BE_F"><ellipse cx="497.5883" cy="189.9289" fill="#7A97CA" rx="63.1283" ry="15.3189" style="stroke:#181818;stroke-width:0.5;"/><text fill="#000000" font-family="sans-serif" font-size="14" lengthAdjust="spacing" textLength="70" x="459.5883" y="193.6819">Factureren</text></g><g id="elem_BE_A"><ellipse cx="797.0464" cy="172.9273" fill="#7A97CA" rx="89.3864" ry="20.2773" style="stroke:#181818;stroke-width:0.5;"/><text fill="#000000" font-family="sans-serif" font-size="14" lengthAdjust="spacing" textLength="138" x="725.0464" y="176.6803">Abonnement afsluiten</text></g><!--entity Gebruiker--><g id="elem_Gebruiker"><ellipse cx="159.25" cy="26.03" fill="#FFFFCC" rx="8" ry="8" style="stroke:#181818;stroke-width:0.5;"/><path d="M159.25,34.03 L159.25,61.03 M146.25,42.03 L172.25,42.03 M159.25,61.03 L146.25,76.03 M159.25,61.03 L172.25,76.03 " fill="none" style="stroke:#181818;stroke-width:0.5;"/><text fill="#000000" font-family="sans-serif" font-size="14" lengthAdjust="spacing" textLength="63" x="127.75" y="90.5359">Gebruiker</text></g><!--entity Medewerker--><g id="elem_Medewerker"><ellipse cx="1354.04" cy="695.03" fill="#FFFFCC" rx="8" ry="8" style="stroke:#181818;stroke-width:0.5;"/><path d="M1354.04,703.03 L1354.04,730.03 M1341.04,711.03 L1367.04,711.03 M1354.04,730.03 L1341.04,745.03 M1354.04,730.03 L1367.04,745.03 " fill="none" style="stroke:#181818;stroke-width:0.5;"/><text fill="#000000" font-family="sans-serif" font-size="14" lengthAdjust="spacing" textLength="79" x="1314.54" y="759.5359">Medewerker</text></g><!--entity Betalings systeem--><g id="elem_Betalings systeem"><ellipse cx="797.05" cy="807.03" fill="#FFFFCC" rx="8" ry="8" style="stroke:#181818;stroke-width:0.5;"/><path d="M797.05,815.03 L797.05,842.03 M784.05,823.03 L810.05,823.03 M797.05,842.03 L784.05,857.03 M797.05,842.03 L810.05,857.03 " fill="none" style="stroke:#181818;stroke-width:0.5;"/><text fill="#000000" font-family="sans-serif" font-size="14" lengthAdjust="spacing" textLength="115" x="739.55" y="871.5359">Betalings systeem</text></g><!--entity Leverancier--><g id="elem_Leverancier"><ellipse cx="797.05" cy="695.03" fill="#FFFFCC" rx="8" ry="8" style="stroke:#181818;stroke-width:0.5;"/><path d="M797.05,703.03 L797.05,730.03 M784.05,711.03 L810.05,711.03 M797.05,730.03 L784.05,745.03 M797.05,730.03 L810.05,745.03 " fill="none" style="stroke:#181818;stroke-width:0.5;"/><text fill="#000000" font-family="sans-serif" font-size="14" lengthAdjust="spacing" textLength="75" x="759.55" y="759.5359">Leverancier</text></g><!--link Gebruiker to R_KR--><g id="link_Gebruiker_R_KR"><path d="M179.84,94.69 C219.45,171.76 313.63,348.53 411.5,484.93 C432.26,513.85 459.8,544.41 477.85,563.56 " fill="none" id="Gebruiker-R_KR" style="stroke:#181818;stroke-width:1.0;"/></g><!--link Gebruiker to V_VH--><g id="link_Gebruiker_V_VH"><path d="M190.92,51.6 C296.33,38.23 650.71,6 894.44,136.93 C982.22,184.08 1048.69,289.6 1072.26,330.9 " fill="none" id="Gebruiker-V_VH" style="stroke:#181818;stroke-width:1.0;"/></g><!--link Gebruiker to BE_A--><g id="link_Gebruiker_BE_A"><path d="M190.92,61.57 C287.78,79.4 588.9,134.81 726.36,160.1 " fill="none" id="Gebruiker-BE_A" style="stroke:#181818;stroke-width:1.0;"/></g><!--link B_AB to Medewerker--><g id="link_B_AB_Medewerker"><path d="M1119.07,629.42 C1169.66,650.08 1262.14,687.83 1314.4,709.16 " fill="none" id="B_AB-Medewerker" style="stroke:#181818;stroke-width:1.0;"/></g><!--link BE_F to Betalings systeem--><g id="link_BE_F_Betalings systeem"><path d="M556.87,195.44 C567.17,199.02 576.78,204.53 583.67,212.93 C646.94,290.09 577.99,567.75 613.67,660.93 C637.89,724.2 657.43,735.47 707.67,780.93 C717.23,789.58 728.29,797.75 739.27,805.02 " fill="none" id="BE_F-Betalings systeem" style="stroke:#181818;stroke-width:1.0;"/></g><!--link R_AI to Betalings systeem--><g id="link_R_AI_Betalings systeem"><path d="M229.81,642.78 C356.6,686.25 622.97,777.58 739.47,817.53 " fill="none" id="R_AI-Betalings systeem" style="stroke:#181818;stroke-width:1.0;"/></g><!--link R_KR to Leverancier--><g id="link_R_KR_Leverancier"><path d="M536.26,600.91 C593.64,628.3 702.24,680.15 759.15,707.31 " fill="none" id="R_KR-Leverancier" style="stroke:#181818;stroke-width:1.0;"/></g><!--reverse link R_AI to R_KR--><g id="link_R_AI_R_KR"><path d="M290.57,611.68 C320.5,609.41 352.15,606.53 381.5,602.93 C397.4,600.98 414.45,598.33 430.42,595.59 " fill="none" id="R_AI-backto-R_KR" style="stroke:#181818;stroke-width:1.0;stroke-dasharray:7.0,7.0;"/><polygon fill="#181818" points="285.72,612.04,294.9923,615.3603,290.7062,611.6685,294.398,607.3824,285.72,612.04" style="stroke:#181818;stroke-width:1.0;"/><text fill="#000000" font-family="sans-serif" font-size="13" lengthAdjust="spacing" textLength="62" x="318.5" y="599.007">&#171;includes&#187;</text></g><!--reverse link R_EV to R_KR--><g id="link_R_EV_R_KR"><path d="M229.5,547.99 C285.61,555.33 364.5,565.65 421.99,573.17 " fill="none" id="R_EV-backto-R_KR" style="stroke:#181818;stroke-width:1.0;stroke-dasharray:7.0,7.0;"/><polygon fill="#181818" points="224.62,547.35,233.0308,552.4742,229.5785,547.993,234.0597,544.5407,224.62,547.35" style="stroke:#181818;stroke-width:1.0;"/><text fill="#000000" font-family="sans-serif" font-size="13" lengthAdjust="spacing" textLength="62" x="318.5" y="556.007">&#171;includes&#187;</text></g><!--reverse link B_AB to B_KB--><g id="link_B_AB_B_KB"><path d="M1159.77,616.63 C1197.4,617.46 1242.6,618.47 1279.82,619.3 " fill="none" id="B_AB-backto-B_KB" style="stroke:#181818;stroke-width:1.0;stroke-dasharray:7.0,7.0;"/><polygon fill="#181818" points="1154.83,616.52,1163.7482,620.6992,1159.829,616.62,1163.9082,612.7008,1154.83,616.52" style="stroke:#181818;stroke-width:1.0;"/><text fill="#000000" font-family="sans-serif" font-size="13" lengthAdjust="spacing" textLength="60" x="1185.69" y="614.007">&#171;extends&#187;</text></g><!--reverse link B_AB to B_VB--><g id="link_B_AB_B_VB"><path d="M1133.2,599.83 C1179.05,585.88 1247.16,565.15 1295.39,550.47 " fill="none" id="B_AB-backto-B_VB" style="stroke:#181818;stroke-width:1.0;stroke-dasharray:7.0,7.0;"/><polygon fill="#181818" points="1128.61,601.22,1138.3849,602.4251,1133.3932,599.7636,1136.0547,594.772,1128.61,601.22" style="stroke:#181818;stroke-width:1.0;"/><text fill="#000000" font-family="sans-serif" font-size="13" lengthAdjust="spacing" textLength="60" x="1185.69" y="563.007">&#171;extends&#187;</text></g><!--reverse link V_GPS to B_VB--><g id="link_V_GPS_B_VB"><path d="M552.77,457.12 C594.78,466.85 654.59,479.61 707.67,486.93 C912.14,515.12 1155.57,526.54 1276.7,530.74 " fill="none" id="V_GPS-backto-B_VB" style="stroke:#181818;stroke-width:1.0;stroke-dasharray:7.0,7.0;"/><polygon fill="#181818" points="547.91,455.99,555.775,461.918,552.781,457.1185,557.5806,454.1245,547.91,455.99" style="stroke:#181818;stroke-width:1.0;"/><text fill="#000000" font-family="sans-serif" font-size="13" lengthAdjust="spacing" textLength="62" x="917.44" y="506.007">&#171;includes&#187;</text></g><!--reverse link V_GPS to V_VZ--><g id="link_V_GPS_V_VZ"><path d="M572.42,445.92 C617.96,447.14 676.16,448.71 721.78,449.93 " fill="none" id="V_GPS-backto-V_VZ" style="stroke:#181818;stroke-width:1.0;stroke-dasharray:7.0,7.0;"/><polygon fill="#181818" points="567.6,445.79,576.4942,450.02,572.5983,445.9185,576.6998,442.0227,567.6,445.79" style="stroke:#181818;stroke-width:1.0;"/><text fill="#000000" font-family="sans-serif" font-size="13" lengthAdjust="spacing" textLength="62" x="614.67" y="444.007">&#171;includes&#187;</text></g><!--reverse link V_VZ to V_VH--><g id="link_V_VZ_V_VH"><path d="M853.25,436.74 C889.76,426.2 938.47,411.16 980.44,394.93 C1004.64,385.57 1031.21,373.13 1051.04,363.4 " fill="none" id="V_VZ-backto-V_VH" style="stroke:#181818;stroke-width:1.0;stroke-dasharray:7.0,7.0;"/><polygon fill="#181818" points="848.49,438.11,858.2426,439.4836,853.2976,436.7364,856.0448,431.7914,848.49,438.11" style="stroke:#181818;stroke-width:1.0;"/><text fill="#000000" font-family="sans-serif" font-size="13" lengthAdjust="spacing" textLength="62" x="917.44" y="391.007">&#171;includes&#187;</text></g><!--reverse link V_VR to V_VH--><g id="link_V_VR_V_VH"><path d="M855.64,265.39 C891.71,276.61 939.05,291.87 980.44,306.93 C1002.69,315.03 1027.33,324.99 1046.71,333.07 " fill="none" id="V_VR-backto-V_VH" style="stroke:#181818;stroke-width:1.0;stroke-dasharray:7.0,7.0;"/><polygon fill="#181818" points="850.94,263.93,858.3439,270.4248,855.7139,265.4165,860.7223,262.7865,850.94,263.93" style="stroke:#181818;stroke-width:1.0;"/><text fill="#000000" font-family="sans-serif" font-size="13" lengthAdjust="spacing" textLength="62" x="917.44" y="283.007">&#171;includes&#187;</text></g><!--reverse link V_I to V_VH--><g id="link_V_I_V_VH"><path d="M859.13,324.39 C905.39,329.29 968.83,336 1016.12,341.01 " fill="none" id="V_I-backto-V_VH" style="stroke:#181818;stroke-width:1.0;stroke-dasharray:7.0,7.0;"/><polygon fill="#181818" points="854.22,323.87,862.7467,328.7991,859.192,324.3986,863.5925,320.844,854.22,323.87" style="stroke:#181818;stroke-width:1.0;"/><text fill="#000000" font-family="sans-serif" font-size="13" lengthAdjust="spacing" textLength="62" x="917.44" y="328.007">&#171;includes&#187;</text></g><!--reverse link V_U to V_VH--><g id="link_V_U_V_VH"><path d="M856.85,377.1 C892.61,372.88 939.18,367.27 980.44,361.93 C993.18,360.28 1006.82,358.44 1019.82,356.65 " fill="none" id="V_U-backto-V_VH" style="stroke:#181818;stroke-width:1.0;stroke-dasharray:7.0,7.0;"/><polygon fill="#181818" points="852.26,377.64,861.6662,380.5595,857.2257,377.055,860.7302,372.6144,852.26,377.64" style="stroke:#181818;stroke-width:1.0;"/><text fill="#000000" font-family="sans-serif" font-size="13" lengthAdjust="spacing" textLength="62" x="917.44" y="358.007">&#171;includes&#187;</text></g><!--reverse link BE_F to BE_A--><g id="link_BE_F_BE_A"><path d="M565.96,186.08 C608.57,183.64 664.04,180.47 709.85,177.86 " fill="none" id="BE_F-backto-BE_A" style="stroke:#181818;stroke-width:1.0;stroke-dasharray:7.0,7.0;"/><polygon fill="#181818" points="561.01,186.36,570.2241,189.8385,566.0018,186.0739,569.7664,181.8516,561.01,186.36" style="stroke:#181818;stroke-width:1.0;"/><text fill="#000000" font-family="sans-serif" font-size="13" lengthAdjust="spacing" textLength="60" x="615.67" y="176.007">&#171;extends&#187;</text></g><!--reverse link R_KR to R_I--><g id="link_R_KR_R_I"><path d="M590.29,582.93 C641.13,582.93 702.44,582.93 744.84,582.93 " fill="none" id="R_KR-backto-R_I" style="stroke:#181818;stroke-width:1.0;stroke-dasharray:7.0,7.0;"/><polygon fill="#181818" points="585.34,582.93,594.34,586.93,590.34,582.93,594.34,578.93,585.34,582.93" style="stroke:#181818;stroke-width:1.0;"/><text fill="#000000" font-family="sans-serif" font-size="13" lengthAdjust="spacing" textLength="60" x="615.67" y="579.007">&#171;extends&#187;</text></g><!--reverse link R_I to V_VH--><g id="link_R_I_V_VH"><path d="M847.68,591.77 C887.85,595.99 943.61,594.79 980.44,564.93 C1007.24,543.2 990.37,522.68 1003.87,490.93 C1024,443.61 1054.78,391.3 1070.89,365.01 " fill="none" id="R_I-backto-V_VH" style="stroke:#181818;stroke-width:1.0;stroke-dasharray:7.0,7.0;"/><polygon fill="#181818" points="842.88,591.22,851.3644,596.2216,847.8473,591.791,852.2779,588.2739,842.88,591.22" style="stroke:#181818;stroke-width:1.0;"/><text fill="#000000" font-family="sans-serif" font-size="13" lengthAdjust="spacing" textLength="62" x="917.44" y="561.007">&#171;includes&#187;</text></g><!--reverse link R_I to B_AB--><g id="link_R_I_B_AB"><path d="M833.57,597.92 C856.7,606.86 887.8,617.33 916.44,621.93 C950.72,627.43 989.49,626.17 1020.84,623.31 " fill="none" id="R_I-backto-B_AB" style="stroke:#181818;stroke-width:1.0;stroke-dasharray:7.0,7.0;"/><polygon fill="#181818" points="828.97,596.12,835.8855,603.1326,833.6241,597.9474,838.8093,595.686,828.97,596.12" style="stroke:#181818;stroke-width:1.0;"/><text fill="#000000" font-family="sans-serif" font-size="13" lengthAdjust="spacing" textLength="62" x="917.44" y="618.007">&#171;includes&#187;</text></g><!--reverse link BE_F to V_U--><g id="link_BE_F_V_U"><path d="M556.03,200.59 C565.66,203.72 575.25,207.75 583.67,212.93 C653.9,256.13 639.52,304.5 707.67,350.93 C721.88,360.61 739.3,367.9 754.91,373.14 " fill="none" id="BE_F-backto-V_U" style="stroke:#181818;stroke-width:1.0;stroke-dasharray:7.0,7.0;"/><polygon fill="#181818" points="551.49,199.2,558.9347,205.648,556.2732,200.6564,561.2649,197.9949,551.49,199.2" style="stroke:#181818;stroke-width:1.0;"/><text fill="#000000" font-family="sans-serif" font-size="13" lengthAdjust="spacing" textLength="62" x="614.67" y="233.007">&#171;includes&#187;</text></g><!--SRC=[VPDFR-8m4CNFv5ECogKzK7NLQjj528diKXgnAwso8eTUa74cYPN4bcod-q_zxhK39Mvmu3Y_D-F9umsXMaYOhd0d6rQYdC8uCpzA0x8dFp35toXzA4HDAiPp1UglqeZrYU8xlg0ad3AtEv18DU5vXI0nfKGg-1-CAimqQ06IvOM6b5aH4pm8Hbhag0kKLZLg55AY42uMQSquX5WWoWiW2iBj8eGnkSDFTm-kS5qHhf73pfMkGvZDliQRR_EvhoSHA7N3yezDYQ_fTN3367Ecj4Hf7YULWj8kqewAj-lOsa5tDzJjM0bCIsoayHH8eqLDD5EqG8Yu4IXnQ5v4lkPbJLW5nc-MsISFscNYqqQy4db-53dpXZ_dw4dHl8zFjiaJZ1zkqzliirVwJs3PQP_FQYKgb2_ep8vzUcD5WRIR6lb46wQDgXDjVABLpryJBGajZTq7dIbroc4h7asy6tbSDLnk7s5yJxxSK_8XeZl1ETR8DP1CLGtJNSEYQx3l7EyF9XEujFcuwXUjsIT5EyaKBstuhsp5lLTRDwljwwV7Qh3DqbbizcYnUyXctJQ3i-lhDibJSnMCqwf9KStd5fhG3S7sIYsqDsWX_Z6kf7sMzDd-lt6XExMZDcQdr4Jl09yyC3u3epDiCyZQHBJBcl-dzoNjyU_jYU243R_tpbgN1X-qM_NWQ_06]--></g></svg>